<?xml version="1.0" encoding="UTF-8" standalone="no"?>
<!-- Created with Inkscape (http://www.inkscape.org/) -->

<svg
   width="1241.7795mm"
   height="805.44696mm"
   viewBox="0 0 1241.7795 805.44696"
   version="1.1"
   id="svg1"
   xml:space="preserve"
   xmlns="http://www.w3.org/2000/svg"
   xmlns:svg="http://www.w3.org/2000/svg"><defs
     id="defs1" /><g
     id="layer1"
     transform="matrix(24,0,0,24,-422.09693,-807.37499)"><path
       d="m 43.457779,37.175851 c -14.287758,6.8e-5 -25.870407,14.999742 -25.870407,14.999742 0,0 11.582302,15.00019 25.870407,15.000258 14.288103,-6.8e-5 25.870406,-15.000258 25.870406,-15.000258 0,0 -11.58265,-14.999674 -25.870406,-14.999742 z"
       style="display:none;fill:#e3e3e2;fill-opacity:1;stroke:none;stroke-width:0.798028;stroke-linecap:round;stroke-dasharray:none;stroke-opacity:1"
       id="path2" /><path
       d="m 38.540249,66.594966 c -7.33013,-1.842188 -12.687032,-7.768471 -12.687038,-15.835683 -3e-6,-4.679784 1.805006,-7.809222 4.74928,-9.804698 -7.774445,4.443381 -13.015119,11.220999 -13.015119,11.220999 0,0 9.017579,11.670051 20.952877,14.419382 z"
       style="display:inline;fill:#e3e3e2;stroke-width:0.798028;stroke-linecap:round"
       id="path13" /><path
       d="m 56.677449,41.163056 c 2.767351,2.002805 4.450916,5.076514 4.450913,9.596227 -5e-6,7.796185 -5.003444,13.592322 -11.955364,15.635954 11.536615,-3.068957 20.155187,-14.219653 20.155187,-14.219653 0,0 -5.076574,-6.568846 -12.650736,-11.012528 z"
       style="display:inline;fill:#e3e3e2;stroke-width:0.798028;stroke-linecap:round"
       id="path11" /><path
       d="m 50.931547,39.592932 c -2.260796,0.03522 -4.782023,0.428333 -7.440782,0.428333 -4.389257,3e-6 -8.400754,-1.063978 -11.487348,0.172212 -0.475941,0.24407 -0.942109,0.498877 -1.400926,0.761108 -7.774445,4.443381 -13.015119,11.220999 -13.015119,11.220999 0,0 9.017579,11.670051 20.952877,14.419382 1.57117,0.394862 3.231138,0.605948 4.950516,0.605949 1.988883,2e-6 3.898641,-0.281362 5.682233,-0.805678 11.536615,-3.068957 20.155187,-14.219653 20.155187,-14.219653 0,0 -5.076574,-6.568846 -12.650736,-11.012528 -0.644578,-0.378168 -1.305083,-0.742804 -1.984288,-1.084796 -1.142408,-0.398751 -2.405137,-0.506461 -3.761614,-0.485328 z"
       style="display:inline;fill:#e3e3e2;stroke-width:0.798028;stroke-linecap:round"
       id="path15" /><circle
       style="display:none;fill:#ce5440;fill-opacity:1;stroke:none;stroke-width:0.863525;stroke-linecap:round;stroke-dasharray:none;stroke-opacity:1"
       id="path3"
       cx="43.457779"
       cy="40.512138"
       r="15" /><circle
       style="display:none;fill:#1c1c1c;fill-opacity:1;stroke:none;stroke-width:0.605614;stroke-linecap:round;stroke-dasharray:none;stroke-opacity:1"
       id="circle3"
       cx="43.457779"
       cy="40.512138"
       r="10.519912" /><g
       id="g4"
       transform="translate(0.92588274)"
       style="display:none"><path
         d="m 37.033371,34.419086 v 12.185819 h 3.464388 V 34.419086 Z"
         style="fill:#e3e3e2;stroke-width:0.799999;stroke-linecap:round"
         id="path6" /><path
         d="m 44.566245,34.276459 v 12.185819 h 3.464388 V 34.276459 Z"
         style="fill:#e3e3e2;stroke-width:0.799999;stroke-linecap:round"
         id="path7" /></g><path
       style="display:none;fill:#e3e3e2;stroke-width:0.799999;stroke-linecap:round"
       id="path1"
       d="m 32.376003,37.347498 c 0.113864,0.06574 0.113863,-13.213532 0,-13.147793 -0.113863,0.06574 11.386322,6.705374 11.386322,6.573897 0,-0.131478 -11.500185,6.508157 -11.386322,6.573896 z"
       transform="translate(6.4473652,9.7385353)" /><path
       d="m 48.320335,33.937974 v 6.572553 c 0.0011,-2.64e-4 0.0073,0.0025 0.0073,0.0016 0,-9.15e-4 -0.0062,0.0018 -0.0073,0.0016 v 6.572574 h 1.654701 V 33.937974 Z m 0,6.575697 v -0.0031 c -0.15774,0.03768 -11.492049,-6.507035 -11.378978,-6.572316 0.113863,-0.06574 0.113863,13.213536 0,13.147797 -0.113072,-0.06528 11.221258,-6.610026 11.378978,-6.572337 z"
       style="display:none;fill:#e3e3e2;stroke-width:0.799999;stroke-linecap:round"
       id="path10" /><path
       d="m 54.693161,40.07826 c -3.046421,-1.063337 -6.948382,-1.379917 -11.202396,-1.379917 -4.389257,3e-6 -8.400754,0.258939 -11.487348,1.495129 -0.475941,0.24407 -0.942109,0.498877 -1.400926,0.761108 -2.944274,1.995476 -4.749283,5.124914 -4.74928,9.804698 6e-6,8.067212 5.356908,13.993495 12.687038,15.835683 1.59266,0.366874 3.235377,0.580878 4.917529,0.580886 1.96486,-9e-6 3.875783,-0.29129 5.71522,-0.780615 6.95192,-2.043632 11.955359,-7.839769 11.955364,-15.635954 3e-6,-4.519713 -1.683562,-7.593422 -4.450913,-9.596227 -0.644578,-0.378168 -1.305083,-0.742804 -1.984288,-1.084796 z"
       style="display:inline;fill:#ce5440;stroke-width:1.01826;stroke-linecap:round"
       id="path9" /><path
       style="fill:#55c04c;fill-opacity:1;stroke-width:0.0333333;stroke-linecap:round"
       d="m 42.253906,33.640625 c 0,0 -0.178232,1.107945 -0.222656,1.816406 -0.04442,0.708461 -0.142578,2.587891 -0.142578,2.587891 0,0 -1.607808,-0.360557 -2.042969,-0.517578 -2.693375,-0.971862 -4.935547,-3.515625 -4.935547,-3.515625 0,0 -0.240099,2.283214 1.582031,4.003906 -3.481492,-0.273059 -4.980468,-1.304688 -4.980468,-1.304688 0,0 1.067875,2.03136 4.347656,3.306641 2.110549,0.820648 5.232594,0.902551 7.037109,0.445313 1.804515,0.457238 4.926561,0.375335 7.03711,-0.445313 3.279781,-1.275281 4.347656,-3.306641 4.347656,-3.306641 0,0 -1.498977,1.031629 -4.980469,1.304688 1.82213,-1.720692 1.582031,-4.003906 1.582031,-4.003906 0,0 -2.242171,2.543763 -4.935546,3.515625 -0.435161,0.157021 -2.042969,0.517578 -2.042969,0.517578 0,0 -0.09816,-1.87943 -0.142578,-2.587891 -0.04442,-0.708461 -0.222657,-1.816406 -0.222657,-1.816406 l -0.642578,0.002 z"
       id="path5"
       transform="translate(0.56131919)" /><path
       d="m 42.815225,33.640625 c 0,0 -0.178237,1.107944 -0.222661,1.816405 -0.04442,0.708461 -0.142562,2.587892 -0.142562,2.587892 0,0 -1.607824,-0.360562 -2.042985,-0.517583 -2.693375,-0.971862 -4.935551,-3.515612 -4.935551,-3.515612 0,0 -0.240099,2.283198 1.582031,4.00389 -3.481492,-0.273059 -4.980467,-1.304679 -4.980467,-1.304679 0,0 1.067886,2.031364 4.347667,3.306645 2.110549,0.820648 5.232588,0.902538 7.037103,0.4453 1.804515,0.457238 4.926554,0.375348 7.037103,-0.4453 3.279781,-1.275281 4.347667,-3.306645 4.347667,-3.306645 0,0 -1.498975,1.03162 -4.980467,1.304679 1.82213,-1.720692 1.582031,-4.00389 1.582031,-4.00389 0,0 -2.242176,2.54375 -4.935551,3.515612 -0.435161,0.157021 -2.042964,0.517583 -2.042964,0.517583 0,0 -0.09816,-1.879431 -0.142583,-2.587892 -0.04442,-0.708461 -0.222661,-1.816405 -0.222661,-1.816405 l -0.642575,0.002 z"
       style="fill:#55c04c;stroke-width:0.0333333;stroke-linecap:round"
       id="path16" /></g></svg>