<?xml version="1.0" encoding="UTF-8" standalone="no"?>
<!-- Created with Inkscape (http://www.inkscape.org/) -->

<svg
   width="1241.7795mm"
   height="720mm"
   viewBox="0 0 1241.7795 720"
   version="1.1"
   id="svg1"
   xml:space="preserve"
   sodipodi:docname="eye2.svg"
   inkscape:export-filename="pause-green.png"
   inkscape:export-xdpi="96"
   inkscape:export-ydpi="96"
   inkscape:version="1.4.2 (ebf0e940, 2025-05-08)"
   xmlns:inkscape="http://www.inkscape.org/namespaces/inkscape"
   xmlns:sodipodi="http://sodipodi.sourceforge.net/DTD/sodipodi-0.dtd"
   xmlns="http://www.w3.org/2000/svg"
   xmlns:svg="http://www.w3.org/2000/svg"><sodipodi:namedview
     id="namedview1"
     pagecolor="#ffffff"
     bordercolor="#000000"
     borderopacity="0.25"
     inkscape:showpageshadow="2"
     inkscape:pageopacity="0.0"
     inkscape:pagecheckerboard="0"
     inkscape:deskcolor="#d1d1d1"
     inkscape:document-units="mm"
     showguides="true"
     inkscape:zoom="0.098805877"
     inkscape:cx="2808.5374"
     inkscape:cy="2019.1107"
     inkscape:window-width="1456"
     inkscape:window-height="798"
     inkscape:window-x="0"
     inkscape:window-y="33"
     inkscape:window-maximized="0"
     inkscape:current-layer="layer1" /><defs
     id="defs1" /><g
     id="layer1"
     transform="matrix(24,0,0,24,-422.09693,-612.29131)"><path
       d="m 43.457779,25.512138 c -14.287758,6.8e-5 -25.870407,14.999742 -25.870407,14.999742 0,0 11.582302,15.00019 25.870407,15.000258 14.288103,-6.8e-5 25.870406,-15.000258 25.870406,-15.000258 0,0 -11.58265,-14.999674 -25.870406,-14.999742 z"
       style="display:inline;fill:#e3e3e2;fill-opacity:1;stroke:none;stroke-width:0.798028;stroke-linecap:round;stroke-dasharray:none;stroke-opacity:1"
       id="path2"
       inkscape:export-filename="skip-red.png"
       inkscape:export-xdpi="96"
       inkscape:export-ydpi="96" /><circle
       style="display:inline;fill:#55c04c;fill-opacity:1;stroke:none;stroke-width:0.863525;stroke-linecap:round;stroke-dasharray:none;stroke-opacity:1"
       id="path3"
       cx="43.457779"
       cy="40.512138"
       r="15" /><circle
       style="display:inline;fill:#1c1c1c;fill-opacity:1;stroke:none;stroke-width:0.605614;stroke-linecap:round;stroke-dasharray:none;stroke-opacity:1"
       id="circle3"
       cx="43.457779"
       cy="40.512138"
       r="10.519912" /><g
       id="g4"
       transform="translate(0.92588274)"
       style="display:inline"><path
         d="m 37.033371,34.419086 v 12.185819 h 3.464388 V 34.419086 Z"
         style="fill:#e3e3e2;stroke-width:0.799999;stroke-linecap:round"
         id="path6" /><path
         d="m 44.566245,34.276459 v 12.185819 h 3.464388 V 34.276459 Z"
         style="fill:#e3e3e2;stroke-width:0.799999;stroke-linecap:round"
         id="path7" /></g><path
       style="display:none;fill:#e3e3e2;stroke-width:0.799999;stroke-linecap:round"
       id="path1"
       d="m 32.376003,37.347498 c 0.113864,0.06574 0.113863,-13.213532 0,-13.147793 -0.113863,0.06574 11.386322,6.705374 11.386322,6.573897 0,-0.131478 -11.500185,6.508157 -11.386322,6.573896 z"
       transform="translate(6.4473652,9.7385353)" /><path
       d="m 48.320335,33.937974 v 6.572553 c 0.0011,-2.64e-4 0.0073,0.0025 0.0073,0.0016 0,-9.15e-4 -0.0062,0.0018 -0.0073,0.0016 v 6.572574 h 1.654701 V 33.937974 Z m 0,6.575697 v -0.0031 c -0.15774,0.03768 -11.492049,-6.507035 -11.378978,-6.572316 0.113863,-0.06574 0.113863,13.213536 0,13.147797 -0.113072,-0.06528 11.221258,-6.610026 11.378978,-6.572337 z"
       style="display:none;fill:#e3e3e2;stroke-width:0.799999;stroke-linecap:round"
       id="path10" /></g></svg>
